<?xml version="1.0" standalone="no"?>
<!DOCTYPE svg PUBLIC "-//W3C//DTD SVG 20010904//EN"
 "http://www.w3.org/TR/2001/REC-SVG-20010904/DTD/svg10.dtd">
<svg version="1.0" xmlns="http://www.w3.org/2000/svg"
 width="1654.000000pt" height="1654.000000pt" viewBox="0 0 1654.000000 1654.000000"
 preserveAspectRatio="xMidYMid meet">
<metadata>
Created by potrace 1.14, written by Peter Selinger 2001-2017
</metadata>
<g transform="translate(0.000000,1654.000000) scale(0.100000,-0.100000)"
fill="#000000" stroke="none">
<path d="M7918 16535 c-2 -1 -55 -6 -118 -9 -155 -9 -323 -22 -397 -31 -40 -5
-154 -17 -183 -20 -14 -1 -38 -5 -55 -8 -16 -3 -52 -9 -80 -12 -27 -3 -57 -8
-65 -10 -8 -2 -35 -6 -60 -9 -25 -3 -54 -8 -65 -10 -11 -2 -40 -7 -65 -11 -62
-10 -79 -13 -98 -19 -9 -3 -33 -7 -52 -10 -260 -39 -933 -225 -1235 -341 -33
-13 -107 -42 -165 -64 -321 -123 -632 -267 -960 -444 -475 -256 -969 -595
-1405 -966 -211 -179 -253 -219 -495 -461 -265 -265 -400 -415 -609 -676 -106
-133 -110 -138 -210 -274 -38 -52 -74 -100 -79 -106 -45 -51 -354 -537 -423
-664 -13 -25 -27 -46 -31 -48 -5 -2 -8 -7 -8 -11 0 -4 -31 -63 -68 -132 -85
-155 -292 -577 -292 -594 0 -2 -13 -32 -29 -67 -106 -233 -272 -700 -361
-1015 -30 -108 -35 -127 -46 -182 -3 -13 -9 -32 -15 -43 -5 -10 -8 -18 -5 -18
3 0 -1 -21 -9 -47 -8 -27 -16 -59 -19 -73 -3 -14 -7 -35 -10 -47 -9 -37 -51
-241 -70 -338 -10 -52 -56 -346 -61 -390 -3 -27 -8 -61 -10 -75 -3 -14 -7 -52
-10 -85 -4 -33 -8 -71 -10 -85 -2 -14 -7 -59 -10 -100 -3 -41 -8 -97 -10 -125
-15 -178 -20 -342 -19 -655 0 -363 7 -530 29 -760 13 -128 17 -167 20 -190 2
-14 7 -52 11 -85 3 -33 8 -68 10 -79 2 -10 6 -44 10 -75 3 -31 8 -58 9 -61 2
-3 6 -30 10 -60 3 -30 8 -62 10 -70 2 -8 7 -30 10 -47 8 -48 14 -85 20 -113 3
-14 8 -38 11 -55 3 -16 14 -72 25 -124 11 -51 22 -103 25 -114 2 -11 12 -54
23 -96 11 -42 22 -87 25 -101 28 -142 180 -626 270 -860 20 -52 39 -102 41
-110 4 -17 71 -179 102 -250 146 -327 258 -552 405 -815 231 -411 595 -932
892 -1276 17 -19 56 -64 86 -99 212 -245 604 -632 845 -835 44 -37 91 -77 105
-89 46 -40 254 -202 355 -277 55 -41 102 -76 105 -79 3 -3 12 -9 21 -15 9 -5
90 -60 180 -121 218 -147 447 -287 664 -404 92 -51 491 -250 499 -250 2 0 48
-20 100 -45 53 -25 100 -45 105 -45 4 0 21 -6 37 -14 25 -13 78 -36 94 -41 3
-1 16 -6 30 -12 105 -45 462 -173 550 -198 8 -3 83 -25 165 -50 125 -39 353
-101 439 -120 11 -2 53 -12 91 -21 92 -20 82 -18 231 -48 134 -26 280 -52 349
-61 22 -3 54 -8 70 -10 17 -3 50 -8 75 -11 25 -3 56 -7 70 -10 14 -2 52 -6 85
-9 33 -4 74 -8 91 -10 16 -2 66 -7 110 -11 43 -3 95 -8 114 -10 255 -25 1151
-25 1288 1 10 1 58 6 109 9 50 4 102 9 115 11 13 2 50 6 83 10 54 5 130 15
225 30 19 2 51 7 70 9 19 2 78 12 130 21 172 29 181 31 295 55 50 11 102 22
118 25 54 10 75 15 247 60 96 25 183 47 192 50 134 32 708 225 760 255 10 5
22 10 27 10 11 0 297 120 416 175 263 121 630 315 825 435 8 5 60 37 115 71
176 109 409 269 580 397 99 75 345 270 355 281 3 4 21 19 40 35 287 235 748
701 1015 1026 38 47 72 87 76 90 3 3 76 97 160 210 128 170 344 483 434 630
12 19 34 54 48 77 15 24 27 44 27 47 0 2 19 35 42 72 23 38 76 132 117 209
359 661 617 1342 790 2082 31 133 33 140 56 263 7 41 21 111 29 155 14 75 18
102 31 193 3 20 8 48 10 62 3 14 7 48 11 75 3 28 7 60 9 73 2 13 7 53 11 90 3
37 8 74 9 83 2 9 7 56 10 105 4 49 9 105 11 124 19 224 26 907 11 1120 -4 58
-10 134 -12 170 -3 36 -7 88 -10 115 -3 28 -7 77 -10 110 -3 33 -8 76 -11 96
-2 20 -7 54 -9 75 -6 42 -33 231 -41 279 -4 26 -13 81 -28 167 -13 73 -20 111
-36 183 -10 44 -21 97 -24 119 -4 21 -8 42 -11 46 -2 3 -7 21 -10 38 -3 18
-21 94 -41 170 -200 778 -506 1512 -912 2192 -229 382 -498 757 -797 1110
-178 209 -219 253 -445 480 -252 253 -371 362 -615 564 -38 32 -79 66 -91 76
-12 9 -28 21 -36 26 -8 5 -33 23 -54 41 -52 43 -140 109 -210 158 -31 22 -62
45 -68 51 -22 21 -377 254 -386 254 -6 0 -10 5 -10 10 0 6 -5 10 -11 10 -6 0
-29 13 -52 28 -132 90 -676 381 -902 482 -288 130 -769 315 -895 345 -8 2 -42
13 -75 24 -120 39 -471 134 -620 167 -44 10 -113 25 -160 34 -27 6 -61 12 -75
15 -28 6 -302 54 -340 60 -14 2 -45 7 -70 10 -25 3 -56 8 -70 10 -14 2 -50 6
-80 10 -30 3 -66 8 -80 10 -14 3 -55 7 -92 10 -37 2 -80 7 -95 9 -15 3 -68 8
-118 11 -49 4 -112 9 -140 11 -60 5 -862 13 -867 9z"/>
</g>
</svg>
